<?xml version="1.0" standalone="no"?>
<!DOCTYPE svg PUBLIC "-//W3C//DTD SVG 20010904//EN"
 "http://www.w3.org/TR/2001/REC-SVG-20010904/DTD/svg10.dtd">
<svg version="1.0" xmlns="http://www.w3.org/2000/svg"
 width="330.000000pt" height="330.000000pt" viewBox="0 0 330.000000 330.000000"
 preserveAspectRatio="xMidYMid meet">
<metadata>
Created by potrace 1.14, written by Peter Selinger 2001-2017
</metadata>
<g transform="translate(0.000000,330.000000) scale(0.100000,-0.100000)"
fill="#000000" stroke="none">
<path d="M443 3148 c-36 -76 -45 -106 -50 -171 -3 -40 -10 -77 -15 -84 -6 -7
-4 -22 6 -42 21 -40 20 -44 -5 -30 -17 9 -24 8 -31 -2 -6 -10 -7 -6 -3 10 5
16 4 21 -4 17 -7 -5 -10 3 -7 26 4 28 0 35 -20 45 -14 6 -26 7 -30 2 -3 -5
-15 -9 -27 -9 -13 0 -17 -3 -11 -8 18 -12 45 -72 49 -107 2 -27 0 -32 -15 -28
-16 4 -32 47 -35 90 -1 16 -15 29 -15 13 0 -10 -3 -10 -15 0 -13 11 -15 8 -15
-14 0 -43 -28 -29 -70 34 -35 52 -62 75 -84 72 -10 -2 -22 2 -27 9 -4 8 -11
10 -16 6 -4 -4 -3 -14 2 -21 6 -7 24 -35 42 -62 66 -101 171 -243 229 -308 9
-10 24 -41 34 -69 13 -36 19 -45 23 -31 3 14 5 12 6 -8 1 -19 10 -32 29 -42
15 -8 22 -15 15 -16 -7 0 -10 -6 -7 -14 3 -8 11 -13 18 -10 12 5 14 -3 19 -78
1 -25 6 -50 11 -55 5 -4 6 -3 3 3 -4 7 -1 17 7 23 10 9 16 8 26 -4 7 -8 16
-12 21 -10 4 3 18 -17 31 -45 12 -27 28 -52 35 -55 18 -6 16 20 -2 35 -8 7
-12 16 -9 21 3 5 1 9 -5 9 -5 0 -12 13 -16 29 -3 16 -13 35 -22 42 -13 12 -13
14 3 20 16 5 14 8 -14 23 -41 21 -41 30 -1 21 l31 -7 -3 46 c-3 29 0 47 8 50
8 3 10 27 6 79 -4 54 -1 87 10 121 l16 46 -27 -14 c-15 -7 -38 -17 -52 -20
-22 -6 -21 -4 8 14 17 12 32 29 32 37 0 8 14 20 30 26 17 6 30 17 30 24 0 7 5
13 11 13 8 0 8 5 -1 15 -9 11 -28 14 -63 13 -50 -3 -51 -2 -59 31 -7 24 -3 62
13 137 21 101 21 104 3 131 -10 16 -17 34 -16 41 4 19 -4 14 -15 -10z m-83
-418 c0 -5 -5 -10 -11 -10 -5 0 -7 5 -4 10 3 6 8 10 11 10 2 0 4 -4 4 -10z
m17 -92 c-3 -8 -6 -5 -6 6 -1 11 2 17 5 13 3 -3 4 -12 1 -19z m77 -26 c13 -21
18 -92 7 -92 -6 0 -11 7 -11 16 0 9 -9 27 -20 41 -11 14 -17 29 -14 34 7 11
31 12 38 1z"/>
<path d="M2817 3133 c-4 -10 -12 -26 -19 -35 -10 -14 -8 -37 8 -120 12 -57 19
-120 16 -142 l-4 -38 -48 5 c-31 4 -54 1 -65 -7 -19 -14 -21 -10 75 -96 34
-31 40 -40 25 -40 -11 0 -29 7 -39 15 -27 21 -39 19 -26 -4 13 -25 13 -146 -1
-191 -16 -55 -31 -132 -30 -163 0 -17 -4 -25 -10 -21 -6 4 -9 -1 -8 -12 2 -11
0 -25 -5 -32 -4 -7 -9 -29 -11 -48 -2 -20 -9 -41 -16 -48 -9 -8 -10 -7 -5 7
16 43 16 50 1 24 -18 -31 -45 -126 -45 -157 0 -11 -9 -25 -19 -32 -11 -6 -17
-18 -13 -26 3 -9 1 -13 -5 -9 -11 7 -23 -14 -23 -40 0 -9 -23 -51 -51 -95 -27
-43 -63 -107 -79 -142 -27 -62 -76 -120 -92 -110 -4 3 -8 1 -8 -5 0 -6 -6 -8
-14 -5 -14 6 -66 -49 -66 -71 0 -7 -7 -18 -15 -25 -8 -7 -14 -19 -13 -27 2 -8
-7 -22 -19 -30 -20 -14 -24 -13 -48 14 -68 73 -66 72 -92 60 -16 -7 -27 -7
-34 0 -12 12 -110 -4 -120 -20 -4 -5 -12 -6 -18 -2 -7 4 -28 -5 -47 -20 -30
-23 -39 -26 -60 -16 -29 13 -57 4 -50 -16 3 -8 1 -11 -5 -8 -5 4 -7 15 -4 26
4 11 2 19 -4 19 -6 0 -11 -6 -12 -12 0 -7 -5 -2 -10 12 -6 13 -13 20 -17 15
-12 -18 -76 -47 -80 -37 -1 5 -13 7 -24 4 -18 -4 -20 -2 -14 14 6 15 5 17 -5
7 -20 -19 -39 -15 -39 7 0 12 -6 20 -12 19 -7 -1 -26 3 -41 9 -16 7 -33 12
-39 12 -6 0 -6 6 2 15 15 18 -1 20 -18 3 -10 -10 -15 -10 -21 1 -7 10 -10 10
-16 1 -6 -9 -9 -9 -15 1 -6 9 -13 10 -22 3 -7 -6 -29 -10 -48 -9 -24 1 -40 -4
-52 -19 -9 -12 -17 -17 -18 -12 0 4 -12 1 -26 -9 -14 -9 -28 -15 -30 -12 -9 8
47 38 58 31 7 -4 8 -3 4 4 -4 7 -4 18 1 25 25 39 -15 43 -86 7 l-34 -17 28 -7
c26 -7 27 -8 10 -26 -17 -18 -17 -20 -1 -20 9 0 22 -11 28 -25 6 -14 15 -25
20 -25 5 0 6 -5 2 -11 -4 -8 -9 -8 -17 0 -8 8 -16 6 -29 -6 -13 -12 -21 -14
-29 -6 -6 6 -18 9 -25 6 -14 -5 -19 11 -15 54 1 13 -6 26 -18 32 -11 6 -22 19
-26 30 -3 10 -18 21 -34 24 -17 4 -42 24 -66 52 -28 35 -40 43 -46 33 -11 -16
-27 3 -36 45 -4 21 -8 25 -15 15 -7 -9 -8 -5 -4 13 4 18 1 26 -8 26 -16 0 -28
-50 -22 -84 7 -32 -10 -28 -27 6 -13 25 -13 29 0 24 10 -4 13 1 9 21 -3 15 -1
24 4 21 4 -3 11 6 14 20 4 17 -2 38 -20 67 -31 49 -74 103 -74 92 0 -4 -10 1
-22 12 -13 10 -17 12 -10 4 6 -8 12 -18 12 -23 0 -6 -5 -5 -12 0 -24 19 -48
12 -44 -13 7 -35 32 -78 40 -66 3 6 2 13 -4 17 -5 3 -10 15 -10 26 0 11 -4 17
-10 14 -6 -4 -7 1 -3 11 7 18 8 16 43 -51 9 -16 22 -29 30 -27 11 3 11 0 0
-13 -10 -12 -11 -18 -1 -28 10 -9 11 -8 6 6 -10 24 12 22 25 -3 7 -14 7 -20 0
-20 -5 0 -10 -7 -10 -16 0 -8 4 -13 9 -9 5 3 13 0 17 -6 4 -8 3 -9 -4 -5 -8 5
-12 0 -12 -13 0 -27 -21 -31 -44 -9 -11 10 -25 18 -32 18 -6 0 -15 8 -18 17
-6 15 -9 15 -16 3 -6 -9 -2 -19 11 -30 10 -10 16 -20 12 -24 -3 -3 0 -6 8 -6
8 0 22 -8 30 -17 9 -10 25 -24 35 -31 17 -11 16 -11 -4 -1 -36 16 -39 2 -6
-29 20 -18 30 -38 31 -62 2 -30 1 -32 -9 -15 -13 24 -44 55 -55 55 -5 0 -17 9
-26 21 -10 11 -21 18 -24 15 -3 -3 0 -12 7 -21 7 -9 8 -15 2 -15 -6 0 -12 5
-14 11 -2 5 -11 11 -20 13 -9 1 -29 15 -45 31 -15 16 -22 25 -15 21 19 -11 14
11 -6 26 -11 7 -22 20 -25 28 -4 8 -5 -2 -2 -22 4 -23 2 -38 -5 -38 -5 0 -10
9 -10 20 0 11 -6 20 -14 20 -7 0 -16 12 -19 27 -5 26 -4 26 9 8 13 -18 14 -18
12 7 -1 15 -6 24 -10 22 -4 -3 -8 1 -8 8 0 14 -39 68 -40 55 0 -5 5 -18 12
-30 6 -12 11 -37 9 -56 -1 -18 2 -38 7 -45 14 -18 33 -106 26 -118 -4 -7 -3
-8 4 -4 7 4 12 15 12 24 1 9 7 -1 15 -23 8 -22 13 -45 11 -50 -2 -6 2 -19 10
-30 21 -29 17 -40 -8 -19 l-22 19 17 -27 c20 -32 22 -42 5 -32 -6 4 -3 -5 8
-19 32 -45 40 -32 17 29 -2 7 6 10 21 9 28 -3 33 4 15 22 -9 9 -8 11 4 9 26
-3 29 -12 15 -35 -8 -13 -19 -19 -28 -16 -8 3 -3 -6 12 -22 23 -22 30 -25 40
-14 7 7 9 12 3 11 -20 -4 -35 0 -35 11 0 6 6 9 13 6 6 -2 20 0 29 4 11 6 19 5
24 -3 5 -7 3 -8 -6 -3 -8 5 -11 4 -6 -3 4 -6 13 -9 21 -5 8 3 15 1 15 -4 0 -6
12 -15 27 -22 24 -11 25 -11 12 5 -13 16 -12 16 8 4 12 -8 20 -17 17 -21 -5
-9 65 -84 86 -91 9 -3 11 -9 6 -14 -5 -5 -11 -4 -13 4 -3 6 -9 10 -13 7 -5 -3
-21 6 -36 20 -15 14 -29 23 -32 21 -15 -16 82 -88 106 -79 15 6 16 5 2 -12
-14 -17 -13 -18 2 -12 10 3 20 1 24 -5 4 -6 3 -8 -3 -5 -6 4 -13 0 -16 -8 -4
-9 -1 -12 7 -9 7 3 13 -2 13 -10 0 -11 -5 -13 -19 -5 -10 5 -18 14 -18 19 0 5
-14 8 -30 6 -24 -3 -31 1 -36 19 -3 12 -17 27 -32 33 -25 11 -26 11 -2 5 25
-6 25 -5 6 15 -10 12 -23 19 -28 16 -6 -4 -7 2 -3 15 5 16 -1 30 -22 54 -16
19 -34 32 -41 29 -6 -2 4 -19 24 -38 19 -19 32 -40 28 -45 -4 -6 -11 -6 -19 1
-8 7 -19 9 -24 6 -11 -7 -44 47 -36 58 3 3 2 4 -1 1 -4 -2 -15 0 -24 5 -14 8
-22 4 -35 -16 -11 -17 -12 -24 -4 -18 21 13 48 12 59 -1 8 -9 6 -14 -5 -19
-10 -4 -14 -2 -9 5 4 7 -2 6 -17 -1 -32 -17 -32 -17 -14 -24 9 -3 13 -2 10 4
-10 16 11 12 25 -5 10 -12 9 -16 -4 -21 -16 -6 -13 -24 5 -24 6 0 7 5 4 10 -3
6 -2 10 4 10 13 0 32 -35 24 -43 -3 -4 -15 0 -27 8 -11 8 -25 15 -30 15 -16 0
25 -38 55 -50 16 -7 26 -16 23 -21 -2 -5 6 -11 20 -15 32 -8 62 -39 46 -49 -7
-4 -25 5 -41 21 -16 15 -31 25 -34 22 -3 -3 10 -18 29 -33 20 -15 33 -33 29
-38 -3 -6 -1 -7 5 -3 7 4 12 4 12 -1 0 -13 57 -42 77 -39 10 2 12 1 5 -1 -10
-4 -10 -8 -1 -19 19 -23 3 -45 -26 -38 -19 5 -25 2 -25 -9 0 -9 5 -19 10 -22
6 -3 10 0 10 7 0 10 2 10 9 -1 5 -8 16 -11 25 -8 13 5 16 -1 16 -35 0 -25 7
-49 17 -60 15 -17 15 -18 -2 -18 -14 0 -15 -3 -5 -15 6 -8 9 -19 5 -24 -3 -6
1 -26 10 -45 13 -27 14 -39 5 -56 -6 -12 -9 -29 -6 -37 4 -9 1 -22 -5 -29 -8
-10 -6 -20 10 -40 23 -29 28 -49 10 -38 -17 10 -30 -18 -14 -30 8 -6 15 -20
17 -31 2 -11 10 -26 18 -33 13 -12 12 -13 -7 -9 -34 7 -46 -39 -17 -67 9 -9
12 -21 7 -28 -8 -13 -12 -29 -15 -60 -1 -10 -6 -18 -10 -18 -22 0 1 -26 32
-36 19 -7 27 -12 18 -13 -9 -1 -20 -6 -24 -12 -5 -8 1 -10 21 -7 l27 6 -26
-25 c-15 -14 -31 -21 -39 -17 -8 5 -7 2 2 -9 9 -11 22 -15 40 -11 18 4 12 -1
-17 -16 -47 -24 -72 -58 -53 -70 7 -3 9 -14 5 -23 -5 -13 0 -17 19 -17 14 0
29 5 32 10 3 6 -4 10 -17 10 -18 0 -14 4 17 20 23 12 41 16 43 10 2 -5 11 -10
20 -10 12 0 13 -3 4 -12 -7 -7 -12 -16 -12 -21 0 -10 101 -6 116 5 6 4 21 9
35 11 13 2 33 17 44 35 11 17 25 31 31 32 14 0 49 38 42 46 -3 2 -22 -11 -42
-30 -26 -24 -43 -32 -58 -28 -21 5 -20 6 8 29 17 15 21 21 8 14 -18 -8 -20 -7
-19 12 1 14 9 23 23 25 12 2 20 7 17 12 -3 5 -3 21 1 35 4 18 11 24 21 20 11
-3 13 -1 10 10 -4 8 -2 17 3 20 6 4 10 0 10 -7 1 -7 8 -1 16 15 15 28 30 37
21 12 -4 -8 -2 -17 4 -20 10 -7 49 75 54 113 4 38 -13 24 -20 -16 -3 -20 -10
-44 -16 -52 -7 -11 -8 -7 -4 15 6 27 5 28 -6 10 -7 -11 -18 -24 -26 -28 -7 -4
-13 -15 -13 -24 0 -13 -3 -14 -12 -5 -9 9 -7 16 7 32 10 11 15 23 12 26 -10
11 13 45 25 38 6 -4 8 -3 4 4 -3 6 -1 23 4 38 9 23 9 25 -4 15 -12 -10 -14 -9
-9 8 3 12 9 21 13 21 4 0 12 11 18 25 8 17 8 25 1 25 -6 0 -9 20 -7 47 2 32 7
47 16 45 6 -1 12 3 12 9 0 5 4 8 9 4 5 -3 7 -21 4 -40 -3 -22 -2 -35 5 -35 6
0 13 15 15 33 4 29 5 30 12 10 11 -33 25 -18 25 28 0 21 5 39 11 39 6 0 8 -9
4 -22 -5 -20 -5 -21 5 -5 6 10 10 30 7 45 -2 15 -2 21 1 13 3 -11 8 -8 18 10
14 23 14 22 8 -18 -4 -28 -2 -43 5 -43 6 0 11 10 11 23 0 12 5 29 10 37 7 10
9 -23 5 -105 -4 -92 -10 -132 -27 -172 -20 -49 -38 -68 -38 -41 0 6 -2 9 -5 7
-6 -7 17 -79 26 -79 8 0 35 87 44 144 5 28 9 35 15 26 5 -8 6 -18 3 -22 -2 -5
1 -15 7 -23 7 -8 10 -28 8 -45 -3 -16 -1 -30 3 -30 10 0 19 39 19 80 -1 33 -1
34 -16 15 -13 -18 -14 -17 -8 12 3 17 2 33 -4 36 -13 9 10 147 30 175 9 13 13
33 10 45 -5 20 -4 20 11 8 21 -16 22 -35 3 -50 -18 -15 -27 -76 -16 -104 7
-17 9 -18 9 -4 1 9 0 18 -1 20 -4 5 37 67 44 67 5 0 6 12 3 28 -5 23 -4 24 5
9 6 -9 15 -15 19 -13 4 3 6 -9 4 -27 l-4 -32 15 25 c13 22 15 23 22 7 6 -16 8
-15 20 9 8 14 11 30 8 35 -3 5 -1 9 4 9 5 0 14 -15 20 -32 10 -30 10 -28 7 22
l-4 55 11 -43 c12 -45 30 -59 22 -17 -3 17 0 25 10 25 8 0 18 9 21 21 6 19 8
19 19 3 11 -15 12 -12 9 17 -3 28 -2 31 7 17 6 -10 11 -50 11 -88 0 -45 4 -68
11 -64 5 3 7 17 3 31 -4 19 -3 23 7 17 10 -6 10 -4 0 9 -10 11 -12 29 -7 59
10 57 28 88 20 33 l-5 -40 21 25 c22 25 23 23 2 -26 -2 -6 3 -14 11 -17 11 -4
16 5 21 36 4 23 12 53 17 67 7 20 11 22 18 10 13 -21 12 -43 -1 -34 -8 4 -9
-1 -3 -17 8 -26 5 -172 -5 -231 0 -5 -7 -8 -15 -8 -22 0 -37 -66 -19 -84 7 -7
11 -22 15 -66 2 -14 14 -35 26 -46 21 -19 22 -24 11 -43 -11 -17 -11 -25 -1
-41 18 -29 15 -38 -13 -36 -14 0 -25 7 -25 14 0 8 -5 12 -11 10 -6 -2 -12 -24
-14 -48 -2 -25 -5 -54 -7 -65 -2 -16 2 -19 19 -17 12 2 24 -2 28 -8 3 -5 14
-10 23 -10 12 0 13 3 4 12 -7 7 -12 23 -12 36 0 19 3 23 18 16 9 -4 31 -8 48
-8 21 -1 30 -5 27 -13 -3 -8 3 -13 13 -13 12 0 15 -3 8 -10 -7 -7 -24 -6 -53
5 -55 19 -61 19 -32 -1 18 -13 20 -18 10 -26 -11 -7 -11 -9 1 -7 31 3 51 -1
45 -10 -3 -5 0 -11 7 -14 7 -2 3 -3 -9 -1 -11 2 -29 7 -40 10 -13 4 -15 3 -4
-4 11 -8 11 -11 0 -16 -8 -3 -4 -3 9 0 12 3 22 2 21 -3 -5 -31 2 -33 136 -32
130 0 155 6 118 28 -16 9 -15 10 5 11 13 0 21 4 17 9 -3 5 -1 13 5 16 8 5 6
14 -4 30 -9 13 -13 31 -10 40 5 11 0 18 -15 22 -11 3 -18 9 -15 14 3 5 -7 9
-23 10 l-28 1 29 10 c23 9 30 8 38 -6 5 -9 14 -16 20 -16 6 0 1 11 -12 25 -13
14 -19 25 -14 25 5 1 -2 7 -16 15 -14 8 -19 14 -12 15 17 0 15 20 -3 20 -9 0
-15 9 -15 21 0 15 4 19 16 15 14 -5 15 -4 4 9 -7 8 -9 15 -4 15 5 0 2 5 -6 11
-13 9 -13 10 0 8 30 -3 40 1 40 19 0 19 -18 42 -32 42 -5 0 -20 -12 -33 -26
-14 -15 -25 -23 -25 -17 0 17 62 73 81 73 23 0 35 18 20 33 -8 8 -11 8 -11 -2
0 -7 -4 -9 -10 -6 -15 9 -12 25 4 25 19 0 39 27 31 40 -5 8 -15 6 -33 -6 l-25
-17 23 39 c13 22 28 42 33 45 5 4 1 11 -8 17 -10 5 -15 14 -11 21 4 6 11 9 16
6 5 -3 9 3 10 12 1 10 2 35 3 56 1 22 7 37 15 37 6 0 12 5 12 10 0 6 6 10 14
10 16 0 29 27 16 35 -4 3 -14 4 -22 2 -7 -2 -10 -2 -5 0 4 3 4 9 1 14 -7 13
14 39 32 39 18 0 59 41 59 59 0 9 10 20 21 26 12 6 29 17 38 24 15 12 15 16 1
37 -14 22 -13 24 5 34 11 6 25 8 30 5 18 -11 10 8 -12 33 l-23 24 30 -5 c98
-19 115 -19 115 -3 0 9 -6 16 -14 16 -8 0 -17 4 -20 9 -10 16 5 41 25 41 10 0
31 11 46 25 l28 24 -35 1 c-19 1 -29 4 -22 7 6 2 12 11 12 18 0 8 10 20 23 26
12 7 24 15 27 18 3 4 18 11 34 16 16 6 30 18 32 27 1 10 9 25 18 34 22 21 20
47 -5 62 -18 12 -23 11 -36 -7 -8 -12 -19 -21 -25 -21 -6 0 -2 10 10 23 12 12
23 33 25 46 2 13 10 29 18 35 8 6 23 23 34 36 11 14 13 19 5 13 -23 -21 -25
-16 -24 42 2 35 8 60 18 71 9 8 16 23 16 32 0 31 -38 -24 -58 -83 -12 -34 -22
-52 -26 -44 -3 8 -4 1 -1 -15 5 -23 3 -27 -9 -23 -10 4 -16 1 -16 -7 0 -31
-26 -61 -55 -64 -16 -2 -34 -11 -41 -20 -8 -10 -13 -12 -18 -4 -4 7 6 20 26
31 18 11 38 24 44 30 7 5 14 7 17 5 8 -8 19 35 12 46 -4 6 0 22 9 35 9 13 16
37 15 52 -1 28 -1 28 -10 -4 -5 -18 -11 -33 -14 -33 -10 0 7 74 25 110 25 48
25 69 3 87 -10 8 -12 12 -5 8 6 -3 14 0 16 7 2 7 8 29 14 48 5 19 13 53 16 75
l7 40 -20 -25 c-24 -29 -29 -6 -6 24 8 11 15 24 15 29 0 13 -32 -31 -47 -63
-6 -14 -14 -47 -16 -75 l-5 -50 16 53 c9 28 21 52 25 52 5 0 6 -8 2 -17 -5
-10 -19 -54 -32 -98 -27 -92 -35 -113 -28 -70 4 22 3 26 -5 15 -5 -8 -10 -23
-10 -33 0 -10 -4 -16 -9 -13 -5 3 -12 -1 -15 -10 -3 -8 -2 -12 4 -9 6 3 7 -1
4 -9 -3 -9 -11 -13 -17 -9 -7 4 -8 0 -4 -11 5 -13 3 -17 -7 -13 -10 4 -13 1
-10 -7 3 -7 -2 -18 -9 -25 -12 -10 -14 -7 -12 18 1 17 7 37 14 45 7 9 8 17 2
20 -5 3 -12 0 -15 -6 -3 -7 -2 0 1 16 5 23 3 27 -8 20 -10 -6 -9 -1 3 16 9 14
23 24 32 24 9 -1 16 3 16 8 0 6 7 5 16 -2 13 -11 16 -10 21 8 3 12 9 19 14 16
5 -3 9 0 9 5 0 17 -18 13 -29 -6 -9 -15 -10 -13 -11 12 0 20 7 35 20 43 11 7
20 22 20 35 -1 20 -2 19 -16 -8 -11 -22 -13 -24 -10 -8 2 13 0 26 -5 29 -5 3
-12 -8 -15 -25 -4 -16 -15 -38 -27 -48 -20 -18 -20 -18 -6 7 13 25 15 30 17
61 1 9 19 28 39 42 28 20 33 27 19 27 -15 0 -12 7 16 35 20 18 38 40 41 47 3
8 6 5 7 -7 1 -17 3 -16 15 7 11 19 12 34 5 52 -6 17 -6 27 2 32 7 5 8 2 4 -7
-4 -8 0 -5 8 5 9 11 16 27 16 35 0 14 -1 14 -10 1 -8 -13 -10 -13 -10 1 0 18
24 42 32 33 4 -3 5 8 4 25 -1 17 -5 33 -8 36 -3 4 5 17 17 31 24 26 42 95 30
114 -4 6 -14 9 -22 6 -12 -5 -14 -1 -9 16 3 13 6 26 6 31 0 14 20 7 20 -8 0
-8 7 -15 16 -15 8 0 12 5 9 10 -4 7 2 9 19 4 16 -4 26 -2 26 4 0 6 11 23 24
37 21 22 26 24 37 12 11 -12 15 -10 26 11 7 13 10 28 7 34 -3 5 6 21 20 35 14
14 26 30 26 34 0 5 15 26 33 46 19 21 48 58 65 83 17 25 45 60 62 79 16 18 30
40 30 47 0 7 16 33 35 58 19 25 30 48 25 51 -6 3 -10 2 -10 -3 0 -5 -10 -8
-22 -6 -28 5 -46 -8 -86 -67 -27 -40 -49 -59 -68 -59 -2 0 -4 12 -4 26 0 21
-3 24 -13 15 -10 -8 -17 -7 -27 2 -10 10 -12 9 -7 -4 6 -19 -15 -100 -26 -100
-4 1 -10 1 -14 1 -10 0 -9 49 2 75 4 11 17 30 28 43 l20 22 -24 0 c-14 0 -30
5 -37 12 -9 9 -12 8 -12 -5 0 -10 -5 -14 -14 -11 -14 6 -15 0 -17 -81 0 -13
-3 -16 -7 -8 -6 10 -14 9 -35 -2 l-27 -14 21 40 c18 36 18 41 4 55 -11 11 -15
36 -15 85 0 67 -14 117 -43 160 -14 18 -15 19 -20 2z m110 -425 c-3 -8 -6 -5
-6 6 -1 11 2 17 5 13 3 -3 4 -12 1 -19z m-56 -108 c6 0 -1 -11 -15 -25 -13
-13 -27 -34 -31 -45 -3 -11 -13 -20 -21 -20 -17 0 -17 4 -4 28 5 9 15 30 20
46 7 19 15 26 26 22 9 -3 20 -6 25 -6z m-127 -355 c-4 -8 -10 -12 -15 -9 -5 3
-9 -3 -10 -13 0 -10 -3 -13 -5 -6 -7 16 15 55 26 48 5 -3 7 -12 4 -20z m20
-40 c-4 -8 -8 -15 -10 -15 -2 0 -4 7 -4 15 0 8 4 15 10 15 5 0 7 -7 4 -15z
m-97 -157 c-3 -8 -6 -5 -6 6 -1 11 2 17 5 13 3 -3 4 -12 1 -19z m63 2 c0 -5
-5 -10 -11 -10 -5 0 -7 5 -4 10 3 6 8 10 11 10 2 0 4 -4 4 -10z m-121 -121
c-20 -12 -22 -4 -7 20 11 18 14 19 16 5 2 -9 -2 -20 -9 -25z m-48 -108 c-13
-23 -51 -35 -51 -15 0 8 9 14 19 14 11 0 23 5 26 10 11 18 16 10 6 -9z m119
-84 c0 -7 -7 -22 -15 -33 -13 -17 -13 -16 -3 14 13 34 18 40 18 19z m-1900 -7
c0 -5 -4 -10 -10 -10 -5 0 -10 5 -10 10 0 6 5 10 10 10 6 0 10 -4 10 -10z
m1681 -74 c5 3 9 1 9 -5 0 -5 -4 -13 -10 -16 -5 -3 -10 -4 -10 -1 0 2 -2 10
-3 18 -2 7 -2 10 0 5 3 -4 9 -5 14 -1z m54 -24 c0 -27 -3 -32 -43 -66 -31 -27
-28 -1 3 30 14 14 23 29 20 34 -7 11 6 43 14 35 3 -4 6 -19 6 -33z m-2028 -14
c-3 -7 -5 -2 -5 12 0 14 2 19 5 13 2 -7 2 -19 0 -25z m68 -66 c-3 -14 -2 -21
4 -18 5 3 7 -2 4 -13 -3 -10 0 -22 6 -25 18 -12 12 -25 -10 -23 -14 1 -19 7
-16 18 3 9 1 23 -4 30 -4 7 -3 21 2 31 7 13 6 18 -3 16 -7 -2 -14 8 -16 22
l-4 25 22 -20 c15 -13 19 -26 15 -43z m250 8 c4 -6 11 -8 16 -5 5 4 9 -1 9 -9
0 -21 -19 -21 -27 0 -3 8 -12 13 -19 10 -7 -3 -16 -1 -19 4 -4 6 3 10 14 10
11 0 23 -5 26 -10z m-183 -35 c-2 -5 1 -4 9 3 18 17 29 15 29 -5 1 -17 43 -73
55 -73 11 0 4 28 -10 40 -8 7 -12 17 -9 22 9 14 43 -41 39 -63 -2 -11 1 -16 9
-13 7 3 19 -2 26 -10 7 -9 17 -13 24 -9 6 4 5 -1 -3 -10 -9 -12 -10 -17 -2
-17 7 0 9 -5 5 -12 -4 -6 -3 -8 3 -5 6 4 19 0 29 -8 16 -12 17 -16 5 -24 -14
-9 -71 11 -71 25 0 3 5 2 10 -1 19 -12 10 15 -11 33 -12 9 -43 39 -70 66 -27
27 -49 42 -49 34 0 -8 9 -23 21 -34 11 -10 25 -28 31 -39 5 -11 -7 -2 -27 20
-20 22 -39 35 -41 29 -3 -8 -13 -4 -29 9 -18 17 -21 26 -14 39 5 10 6 18 2 18
-4 0 -2 4 6 9 16 10 42 -8 33 -24z m1988 15 c0 -5 -5 -10 -11 -10 -5 0 -7 5
-4 10 3 6 8 10 11 10 2 0 4 -4 4 -10z m-1830 -32 c0 -11 8 -27 18 -34 16 -12
16 -13 -2 -10 -23 3 -56 46 -36 46 7 0 10 7 6 16 -3 8 -2 12 4 9 6 -3 10 -16
10 -27z m-210 -68 c6 -11 7 -20 2 -20 -6 0 -12 9 -15 20 -3 11 -3 20 -1 20 2
0 8 -9 14 -20z m292 -43 c-1 -5 7 -6 18 -2 14 5 20 2 20 -10 0 -10 5 -13 12
-9 6 4 8 3 5 -2 -7 -11 -47 -11 -65 0 -9 6 -10 11 -2 21 8 9 4 17 -15 29 -14
9 -23 21 -20 27 7 11 52 -40 47 -54z m1761 13 c-3 -12 -8 -19 -11 -16 -5 6 5
36 12 36 2 0 2 -9 -1 -20z m-67 -11 c3 -6 1 -16 -6 -22 -10 -9 -12 -8 -6 7 5
14 2 17 -9 12 -9 -3 -13 -2 -10 4 8 13 22 13 31 -1z m99 -8 c-3 -6 -11 -11
-16 -11 -5 0 -4 6 3 14 14 16 24 13 13 -3z m-65 -11 c0 -5 -5 -10 -11 -10 -5
0 -7 5 -4 10 3 6 8 10 11 10 2 0 4 -4 4 -10z m-78 -22 c13 3 19 1 15 -5 -4 -6
-15 -13 -25 -15 -13 -4 -18 1 -19 16 -1 12 1 16 3 10 3 -7 14 -9 26 -6z m-322
-27 c0 -22 -6 -30 -25 -35 -16 -4 -25 -13 -25 -26 0 -13 -7 -20 -20 -20 -21 0
-27 24 -12 48 8 11 72 62 79 62 2 0 3 -13 3 -29z m514 4 c-22 -17 -48 -20 -39
-4 8 12 48 29 54 23 3 -2 -4 -11 -15 -19z m-2099 -5 c3 -5 1 -10 -4 -10 -6 0
-11 5 -11 10 0 6 2 10 4 10 3 0 8 -4 11 -10z m1959 -50 c-10 -4 -21 -6 -24 -3
-8 7 24 22 34 16 5 -4 1 -10 -10 -13z m-1840 -65 c5 -13 2 -14 -15 -3 -12 7
-30 18 -40 24 -10 6 -16 13 -13 16 8 9 61 -21 68 -37z m159 24 c4 -16 3 -18
-9 -8 -16 13 -19 29 -5 29 5 0 11 -9 14 -21z m1707 17 c0 -2 -13 -9 -30 -15
-16 -5 -30 -6 -30 -1 0 5 8 11 18 13 24 7 42 8 42 3z m-1882 -65 c12 -10 22
-24 22 -30 0 -7 -11 -1 -25 13 -37 37 -34 50 3 17z m1379 -13 c-3 -8 -6 -5 -6
6 -1 11 2 17 5 13 3 -3 4 -12 1 -19z m-1160 -32 c0 -8 -6 -12 -15 -9 -11 5
-11 7 0 14 7 5 13 9 14 9 0 0 1 -6 1 -14z m-121 -11 c20 -19 4 -20 -22 0 -12
9 -14 14 -6 15 7 0 20 -7 28 -15z m374 -24 c0 -6 -4 -13 -10 -16 -5 -3 -10
-21 -10 -38 0 -41 -14 -66 -24 -42 -3 9 -11 13 -18 9 -7 -4 -3 3 10 15 13 13
22 33 21 44 0 12 -1 25 0 30 2 10 31 9 31 -2z m-326 -16 c16 -12 17 -15 4 -15
-8 0 -21 7 -28 15 -16 19 -1 19 24 0z m-94 -25 c0 -5 -2 -10 -4 -10 -3 0 -8 5
-11 10 -3 6 -1 10 4 10 6 0 11 -4 11 -10z m251 -63 c-10 -9 -11 -8 -5 6 3 10
9 15 12 12 3 -3 0 -11 -7 -18z m-131 -13 c0 -2 -7 -4 -15 -4 -8 0 -15 4 -15
10 0 5 7 7 15 4 8 -4 15 -8 15 -10z m1090 -4 c0 -5 -4 -10 -10 -10 -5 0 -10 5
-10 10 0 6 5 10 10 10 6 0 10 -4 10 -10z m-965 -43 c12 -3 7 -5 -14 -6 -19 0
-31 2 -28 6 4 3 -1 13 -11 21 -14 12 -13 12 8 -1 14 -8 35 -17 45 -20z m-135
-17 c0 -5 -4 -10 -10 -10 -5 0 -10 5 -10 10 0 6 5 10 10 10 6 0 10 -4 10 -10z
m400 -36 c-13 -23 -12 -27 2 -35 10 -6 15 -16 11 -25 -9 -24 18 -36 44 -18 13
8 23 13 24 12 6 -26 6 -59 -2 -63 -5 -4 -9 -17 -9 -31 0 -21 -4 -24 -20 -19
-17 5 -20 2 -20 -24 0 -32 19 -44 21 -13 0 14 2 14 8 -3 7 -16 10 -10 16 27 4
26 11 45 16 42 5 -3 9 1 9 8 0 9 3 9 10 -2 8 -12 10 -12 11 5 0 11 3 14 6 7 2
-6 9 -9 15 -6 5 3 4 -3 -4 -15 -7 -12 -17 -21 -23 -21 -6 0 -17 -20 -24 -45
-12 -42 -30 -60 -32 -32 -1 6 -5 1 -9 -13 -5 -17 -8 -19 -9 -7 -1 22 -6 22
-41 -5 -17 -12 -30 -30 -30 -39 0 -10 -5 -21 -10 -24 -7 -4 -8 8 -4 37 4 32 3
39 -5 28 -10 -13 -11 -13 -10 0 1 8 5 26 9 40 l8 25 1 -24 c2 -38 8 -21 16 43
5 41 4 56 -4 51 -6 -3 -8 -11 -5 -17 4 -6 2 -8 -4 -4 -5 3 -13 0 -15 -6 -4 -8
-6 -7 -6 4 -1 9 4 20 9 23 8 5 7 12 -1 22 -9 10 -9 17 -2 21 5 4 13 24 16 44
5 35 37 91 46 82 2 -2 -2 -16 -9 -30z m176 -191 c-11 -11 -17 4 -9 23 7 18 8
18 11 1 2 -10 1 -21 -2 -24z m699 17 c3 -5 1 -10 -4 -10 -6 0 -11 5 -11 10 0
6 2 10 4 10 3 0 8 -4 11 -10z m-538 -32 c-3 -8 -6 -5 -6 6 -1 11 2 17 5 13 3
-3 4 -12 1 -19z m-400 -10 c-3 -8 -6 -5 -6 6 -1 11 2 17 5 13 3 -3 4 -12 1
-19z m252 -92 c-9 -8 -10 -5 -5 14 3 14 6 32 7 40 1 8 4 2 6 -14 3 -16 -1 -34
-8 -40z m671 20 c0 -3 -4 -8 -10 -11 -5 -3 -10 -1 -10 4 0 6 5 11 10 11 6 0
10 -2 10 -4z m-925 -105 c-8 -17 -19 -31 -24 -31 -5 0 -12 -11 -15 -25 -4 -14
-11 -25 -17 -25 -12 0 -4 30 22 80 14 27 18 30 19 15 1 -18 2 -17 11 4 5 13
12 21 15 18 3 -3 -2 -19 -11 -36z m685 -11 c0 -5 -4 -10 -10 -10 -5 0 -10 5
-10 10 0 6 5 10 10 10 6 0 10 -4 10 -10z m-682 -59 c-21 -46 -38 -65 -38 -42
0 11 54 100 58 96 1 -1 -8 -25 -20 -54z m-261 -17 c-3 -3 -12 -4 -19 -1 -8 3
-5 6 6 6 11 1 17 -2 13 -5z m1273 -45 c0 -5 -4 -9 -10 -9 -5 0 -10 7 -10 16 0
8 5 12 10 9 6 -3 10 -10 10 -16z m-1203 -15 c-3 -3 -12 -4 -19 -1 -8 3 -5 6 6
6 11 1 17 -2 13 -5z m163 -3 c0 -12 -63 -61 -78 -61 -22 0 -12 16 23 34 19 11
35 23 35 28 0 4 5 8 10 8 6 0 10 -4 10 -9z m10 -41 c0 -5 -5 -10 -11 -10 -5 0
-7 5 -4 10 3 6 8 10 11 10 2 0 4 -4 4 -10z m-236 -25 c-4 -8 -13 -15 -22 -15
-13 0 -12 3 4 15 24 18 25 18 18 0z m213 -1 c4 -10 -1 -22 -10 -29 -10 -7 -17
-25 -18 -41 0 -29 0 -29 -10 -5 -8 19 -5 29 12 48 19 19 20 23 6 23 -9 0 -17
5 -17 10 0 17 30 11 37 -6z m-87 -4 c0 -5 -4 -10 -10 -10 -5 0 -10 5 -10 10 0
6 5 10 10 10 6 0 10 -4 10 -10z m860 -25 c7 -9 8 -15 2 -15 -5 0 -12 7 -16 15
-3 8 -4 15 -2 15 2 0 9 -7 16 -15z m-862 -22 c-2 -14 3 -17 22 -15 l25 3 -25
-20 c-14 -11 -34 -20 -45 -20 l-20 0 20 9 c19 8 18 9 -4 9 l-24 1 23 25 c28
30 32 31 28 8z m912 -13 c0 -5 -4 -10 -10 -10 -5 0 -10 5 -10 10 0 6 5 10 10
10 6 0 10 -4 10 -10z m217 -6 c-3 -3 -12 -4 -19 -1 -8 3 -5 6 6 6 11 1 17 -2
13 -5z m-262 -44 c3 -5 -1 -10 -9 -10 -9 0 -16 5 -16 10 0 6 4 10 9 10 6 0 13
-4 16 -10z m-858 -36 c-3 -3 -12 -4 -19 -1 -8 3 -5 6 6 6 11 1 17 -2 13 -5z
m813 -20 c0 -8 -4 -12 -10 -9 -5 3 -10 13 -10 21 0 8 5 12 10 9 6 -3 10 -13
10 -21z m-825 -4 c17 -7 15 -9 -12 -9 -18 -1 -33 4 -33 9 0 12 17 12 45 0z
m1080 -40 c3 -5 2 -10 -4 -10 -5 0 -13 5 -16 10 -3 6 -2 10 4 10 5 0 13 -4 16
-10z m-1045 -22 c-14 -5 -33 -14 -42 -19 -25 -13 -31 -11 -16 5 15 14 40 23
68 24 8 0 4 -4 -10 -10z m900 -22 c0 -3 -4 -8 -10 -11 -5 -3 -10 -1 -10 4 0 6
5 11 10 11 6 0 10 -2 10 -4z"/>
<path d="M1262 825 c0 -16 2 -22 5 -12 2 9 2 23 0 30 -3 6 -5 -1 -5 -18z"/>
<path d="M1304 775 c-3 -8 -4 -20 -2 -27 3 -7 7 -1 10 15 6 29 1 36 -8 12z"/>
<path d="M1282 690 c0 -14 2 -19 5 -12 2 6 2 18 0 25 -3 6 -5 1 -5 -13z"/>
<path d="M1233 2578 c-13 -16 -22 -88 -11 -88 4 0 8 -8 9 -17 0 -15 2 -15 9 2
7 18 9 16 15 -12 4 -18 11 -33 15 -33 5 0 7 -8 5 -17 -1 -10 -9 -17 -18 -15
-11 2 -15 -2 -11 -13 3 -8 12 -15 20 -15 8 0 17 0 21 0 4 0 7 9 6 20 0 11 -1
32 -2 46 -1 14 -5 22 -11 19 -14 -9 -12 13 3 31 40 48 41 49 47 24 5 -23 5
-23 18 4 12 28 16 54 6 44 -3 -4 -20 0 -37 7 -58 23 -74 26 -84 13z"/>
<path d="M920 2569 c0 -5 -10 -14 -22 -19 -16 -6 -18 -9 -7 -9 17 -1 34 -41
18 -41 -5 0 -4 -10 2 -22 12 -22 12 -22 20 -3 5 13 8 15 8 5 2 -24 55 -78 84
-85 15 -4 28 -12 29 -19 0 -6 2 -15 2 -21 2 -17 17 -35 28 -35 6 0 7 8 3 18
-5 14 -4 15 6 5 7 -7 20 -13 29 -13 13 0 15 7 12 30 -3 19 0 30 8 30 8 0 10 8
7 21 -4 15 0 23 14 26 27 8 24 21 -5 18 -17 -2 -23 1 -20 10 10 25 -88 109
-116 100 -10 -3 -36 -1 -59 4 -25 5 -41 5 -41 0z"/>
<path d="M2013 2553 c-12 -2 -27 -10 -33 -18 -9 -11 -6 -17 15 -31 16 -11 24
-23 20 -33 -3 -11 0 -10 10 3 11 14 15 16 15 5 0 -12 2 -12 10 1 8 12 10 12
10 -5 0 -16 3 -15 15 9 21 40 19 63 -7 70 -13 3 -25 5 -28 5 -3 -1 -15 -4 -27
-6z"/>
<path d="M2304 2542 c-13 -12 -17 -13 -24 -2 -7 11 -11 11 -25 0 -10 -8 -27
-19 -39 -25 -20 -10 -47 -54 -60 -102 -6 -18 -4 -20 14 -16 17 5 20 1 20 -26
0 -30 2 -31 43 -31 43 1 63 14 128 86 34 37 46 74 25 74 -9 0 -16 5 -16 10 0
6 8 10 17 10 23 0 9 12 -33 26 -29 10 -37 9 -50 -4z"/>
<path d="M1549 2517 c-14 -11 -15 -16 -4 -30 14 -20 32 -6 19 15 -4 7 -3 8 4
4 7 -4 12 -13 12 -21 0 -7 7 -15 15 -19 8 -3 15 -16 15 -29 0 -13 9 -32 20
-42 27 -25 25 -3 -3 43 -24 38 -25 62 -2 62 17 0 38 -27 32 -42 -3 -8 -9 -3
-15 12 -11 25 -11 25 -11 2 -1 -15 7 -26 24 -32 20 -8 23 -13 16 -27 -18 -35
-27 -65 -33 -113 -3 -23 0 -25 45 -26 41 -2 47 1 41 15 -4 9 -6 24 -6 35 1 10
-8 20 -19 23 -18 5 -28 33 -11 33 5 0 8 19 7 43 -1 23 2 52 7 65 12 34 0 26
-17 -10 -12 -28 -13 -29 -9 -7 6 29 -5 40 -40 45 -12 1 -32 5 -46 8 -14 3 -32
0 -41 -7z"/>
<path d="M1951 2514 c0 -11 3 -14 6 -6 3 7 2 16 -1 19 -3 4 -6 -2 -5 -13z"/>
<path d="M1734 2512 c-6 -4 -13 -15 -17 -24 -5 -13 -1 -18 12 -18 10 0 22 7
25 16 12 32 4 43 -20 26z"/>
<path d="M1786 2505 c-3 -9 -6 -22 -5 -28 0 -7 5 -1 10 12 5 13 8 26 5 28 -2
2 -6 -3 -10 -12z"/>
<path d="M1420 2502 c0 -5 -9 -8 -20 -5 -12 3 -22 -1 -26 -10 -3 -9 -12 -13
-20 -10 -8 3 -15 0 -15 -6 -1 -6 -3 -15 -4 -21 -1 -5 -3 -16 -4 -22 -1 -9 -4
-9 -12 2 -9 12 -10 12 -7 1 5 -17 58 -35 58 -19 0 5 -5 19 -11 30 -13 24 1 19
37 -14 21 -19 21 -19 27 2 3 13 11 18 20 14 9 -3 21 4 30 16 9 12 20 19 26 16
17 -11 21 11 4 25 -13 11 -17 11 -21 1 -3 -10 -7 -10 -18 -1 -11 9 -14 9 -14
-1 0 -10 -3 -10 -15 0 -9 7 -15 8 -15 2z"/>
<path d="M1920 2501 c0 -8 -3 -11 -7 -8 -7 8 -33 -11 -33 -25 0 -6 7 -7 16 -4
9 4 23 1 30 -5 7 -6 18 -8 25 -4 6 5 7 10 2 14 -5 3 -15 15 -21 26 -7 13 -12
15 -12 6z"/>
<path d="M2090 2460 c0 -5 5 -10 10 -10 6 0 10 5 10 10 0 6 -4 10 -10 10 -5 0
-10 -4 -10 -10z"/>
<path d="M866 2444 c-9 -23 -8 -24 17 -24 13 0 29 -6 37 -12 7 -7 3 2 -9 20
-25 36 -36 40 -45 16z"/>
<path d="M1986 2425 c-9 -26 -7 -32 5 -12 6 10 9 21 6 23 -2 3 -7 -2 -11 -11z"/>
<path d="M2035 2400 c-3 -5 1 -10 9 -10 9 0 16 5 16 10 0 6 -4 10 -9 10 -6 0
-13 -4 -16 -10z"/>
<path d="M2880 2385 c0 -8 -4 -15 -9 -15 -6 0 -9 -9 -8 -20 1 -11 4 -16 8 -12
10 10 23 62 15 62 -3 0 -6 -7 -6 -15z"/>
<path d="M1205 2350 c-18 -8 -17 -9 8 -9 16 -1 26 3 22 9 -3 6 -7 10 -8 9 -1
0 -11 -4 -22 -9z"/>
<path d="M2055 2350 c-3 -6 1 -7 9 -4 18 7 21 14 7 14 -6 0 -13 -4 -16 -10z"/>
<path d="M1258 2343 c7 -3 16 -2 19 1 4 3 -2 6 -13 5 -11 0 -14 -3 -6 -6z"/>
<path d="M1124 2289 c-24 -6 -53 -22 -70 -40 -28 -29 -29 -33 -29 -132 0 -145
19 -191 91 -224 65 -30 168 -40 246 -24 54 12 138 60 138 81 0 5 -12 -2 -26
-15 -30 -28 -46 -32 -38 -10 4 8 10 15 15 15 5 0 8 3 8 8 -4 22 4 32 25 32 13
0 26 -5 28 -12 9 -27 62 108 66 168 5 72 -6 97 -51 118 -81 39 -301 58 -403
35z"/>
<path d="M1990 2293 c-84 -14 -165 -49 -180 -78 -21 -40 -8 -132 29 -207 19
-38 37 -68 42 -68 5 0 6 6 3 14 -3 8 -1 17 5 21 6 3 11 -1 11 -9 0 -9 6 -16
14 -16 18 0 27 -25 15 -37 -6 -6 6 -17 33 -29 32 -14 65 -19 138 -19 84 0 102
3 152 28 52 26 59 33 79 85 17 44 22 80 23 154 1 88 -1 99 -22 121 -13 14 -43
30 -67 36 -42 10 -221 13 -275 4z"/>
<path d="M396 2252 c-2 -4 -1 -14 4 -22 7 -11 9 -9 7 8 -1 24 -3 26 -11 14z"/>
<path d="M431 2229 c-1 -9 8 -26 19 -39 11 -13 20 -29 20 -37 0 -7 5 -13 10
-13 6 0 4 13 -5 30 -8 16 -15 39 -15 52 0 17 -3 19 -9 9 -7 -11 -9 -11 -14 0
-4 11 -6 10 -6 -2z"/>
<path d="M490 2225 c7 -9 15 -13 17 -11 7 7 -7 26 -19 26 -6 0 -6 -6 2 -15z"/>
<path d="M371 2193 c-1 -18 4 -33 9 -33 12 0 12 17 0 45 -7 17 -9 15 -9 -12z"/>
<path d="M450 2143 c0 -13 5 -23 10 -23 13 0 13 11 0 30 -8 12 -10 11 -10 -7z"/>
<path d="M1636 2138 c-9 -13 -19 -39 -22 -58 -6 -28 -5 -32 9 -27 10 4 17 2
17 -4 0 -7 7 -8 18 -4 9 4 32 11 51 15 28 7 37 5 53 -13 l19 -22 -6 30 c-3 17
-14 46 -23 65 -15 31 -22 35 -59 38 -35 3 -44 -1 -57 -20z"/>
<path d="M360 2110 c0 -17 4 -29 9 -26 5 4 12 -7 16 -24 10 -46 25 -35 24 18
-2 46 -2 46 -9 12 -7 -32 -7 -33 -9 -7 0 16 -8 35 -16 43 -13 14 -15 12 -15
-16z"/>
<path d="M542 2126 c12 -9 13 -14 3 -23 -7 -7 -16 -9 -19 -5 -4 3 -4 -1 -1 -9
5 -15 65 -65 65 -56 0 3 -7 21 -15 40 -9 23 -11 38 -5 42 6 3 10 12 10 18 0 7
-4 6 -10 -3 -5 -8 -10 -10 -10 -4 0 6 -7 11 -16 11 -15 0 -15 -2 -2 -11z m14
-53 c-10 -10 -19 5 -10 18 6 11 8 11 12 0 2 -7 1 -15 -2 -18z"/>
<path d="M474 2117 c-3 -8 1 -28 10 -44 8 -17 11 -35 6 -42 -5 -10 -11 -5 -18
15 -9 25 -11 26 -11 7 -1 -12 3 -24 8 -27 5 -3 12 -18 16 -33 7 -31 52 -76 66
-68 5 4 9 1 9 -6 0 -9 3 -9 14 0 11 9 15 8 21 -6 6 -16 8 -15 19 6 12 22 14
23 23 6 9 -16 11 -16 16 -1 4 10 3 15 -2 12 -14 -9 -33 51 -29 93 2 23 -1 37
-6 34 -5 -4 -7 1 -3 11 4 9 3 14 -2 11 -5 -3 -12 -1 -16 5 -3 5 -1 10 5 10 6
0 8 5 4 11 -4 8 -9 7 -15 -2 -5 -8 -3 -22 4 -34 7 -11 14 -33 15 -50 1 -23 -1
-26 -8 -15 -5 8 -10 11 -10 6 0 -5 -7 -3 -15 4 -8 7 -15 9 -15 4 0 -16 19 -39
32 -39 8 0 14 -14 15 -35 1 -28 0 -31 -9 -17 -5 10 -7 25 -4 33 3 8 1 12 -4 9
-5 -3 -19 -1 -30 5 -24 13 -28 -5 -4 -18 9 -5 15 -15 12 -22 -3 -10 -9 -8 -24
7 -38 41 -52 66 -47 81 5 13 8 12 20 -4 11 -15 13 -16 13 -2 0 9 -5 20 -10 23
-6 4 -7 11 -4 17 5 7 2 8 -6 3 -10 -6 -12 -4 -7 9 5 12 3 15 -6 10 -9 -6 -9
-4 1 8 10 12 9 18 -3 28 -12 10 -16 9 -21 -3z"/>
<path d="M2801 2114 c0 -11 3 -14 6 -6 3 7 2 16 -1 19 -3 4 -6 -2 -5 -13z"/>
<path d="M2782 2080 c0 -14 2 -19 5 -12 2 6 2 18 0 25 -3 6 -5 1 -5 -13z"/>
<path d="M2825 2077 c-4 -14 -2 -33 3 -44 5 -10 7 -23 5 -30 -2 -7 1 -20 7
-30 8 -14 9 -1 4 52 -7 80 -10 88 -19 52z"/>
<path d="M361 2040 c6 -16 15 -30 20 -30 5 0 3 14 -6 30 -9 17 -17 30 -20 30
-2 0 1 -13 6 -30z"/>
<path d="M1685 2040 c-3 -5 -1 -10 4 -10 6 0 11 5 11 10 0 6 -2 10 -4 10 -3 0
-8 -4 -11 -10z"/>
<path d="M631 2023 c-1 -12 10 -39 24 -59 31 -46 31 -34 0 31 -17 36 -24 44
-24 28z"/>
<path d="M2746 2023 c-6 -14 -5 -15 5 -6 7 7 10 15 7 18 -3 3 -9 -2 -12 -12z"/>
<path d="M2778 2006 c-3 -15 -2 -40 2 -55 l7 -26 12 29 c6 16 10 34 7 40 -2 6
-5 2 -7 -9 -1 -11 -4 -5 -8 15 l-7 35 -6 -29z"/>
<path d="M424 1991 c3 -18 6 -40 6 -47 0 -8 4 -14 9 -14 10 0 -3 77 -14 88 -4
4 -5 -8 -1 -27z"/>
<path d="M361 1984 c0 -11 3 -14 6 -6 3 7 2 16 -1 19 -3 4 -6 -2 -5 -13z"/>
<path d="M1627 1963 c-54 -12 -107 -57 -107 -91 0 -35 21 -89 40 -107 24 -21
26 -37 5 -29 -10 4 -15 0 -15 -11 0 -9 -9 -19 -20 -22 -11 -3 -20 -10 -20 -15
0 -6 7 -8 15 -4 9 3 15 0 15 -10 0 -8 -4 -12 -10 -9 -15 9 -12 -4 4 -20 7 -8
17 -11 20 -7 4 3 11 0 16 -8 12 -19 217 -21 229 -2 4 7 14 12 22 10 10 -2 14
7 14 27 1 44 -17 77 -38 71 -12 -3 -7 8 17 35 20 21 39 50 42 65 8 31 -6 79
-23 79 -6 0 -23 12 -37 28 -14 15 -31 27 -38 28 -66 4 -86 3 -131 -8z m63 -33
c0 -5 -9 -10 -20 -10 -11 0 -20 5 -20 10 0 6 9 10 20 10 11 0 20 -4 20 -10z
m50 0 c0 -5 -9 -10 -20 -10 -11 0 -20 5 -20 10 0 6 9 10 20 10 11 0 20 -4 20
-10z"/>
<path d="M399 1954 c0 -10 -3 -13 -6 -6 -2 6 -14 12 -26 12 -19 -1 -20 -2 -6
-13 9 -7 14 -18 11 -26 -3 -8 0 -11 6 -7 7 4 10 -5 10 -23 -1 -32 20 -91 32
-91 16 0 18 13 4 27 -8 8 -11 19 -8 25 4 7 2 8 -4 4 -8 -5 -12 5 -12 31 0 28
3 34 10 23 7 -11 8 -5 4 20 -8 41 -14 51 -15 24z"/>
<path d="M444 1879 c4 -24 14 -54 22 -66 16 -26 18 -37 4 -28 -6 3 -7 -1 -4
-9 8 -21 24 -20 24 0 0 29 -23 94 -33 94 -5 0 -7 9 -4 20 3 11 0 23 -5 27 -8
4 -9 -8 -4 -38z"/>
<path d="M2750 1885 c0 -22 -2 -51 -5 -65 -3 -14 2 -4 11 22 11 34 12 53 5 65
-8 15 -10 10 -11 -22z"/>
<path d="M491 1890 c-6 -48 9 -84 24 -59 5 7 4 10 -3 5 -7 -4 -12 9 -15 36 -2
26 -5 33 -6 18z"/>
<path d="M2827 1893 c3 -7 1 -19 -4 -26 -15 -19 -37 -96 -30 -104 4 -3 7 2 7
13 0 10 5 26 11 34 8 12 10 10 5 -10 -5 -24 -4 -24 10 -5 9 12 11 21 4 23 -12
4 -13 39 -1 46 15 9 19 43 6 43 -7 0 -11 -6 -8 -14z"/>
<path d="M1044 1863 c2 -16 5 -30 6 -33 1 -3 2 -8 1 -12 0 -5 5 -8 12 -9 6 0
2 -4 -10 -9 -28 -12 -30 -30 -3 -30 11 0 20 -4 20 -10 0 -5 -6 -10 -14 -10 -8
0 -18 -9 -21 -21 -8 -23 -8 -22 20 -37 17 -10 18 -11 3 -12 -10 0 -18 -4 -18
-10 0 -5 7 -10 15 -10 8 0 15 -6 15 -14 0 -20 35 -29 61 -16 17 10 20 9 14 -1
-6 -9 -2 -10 16 -4 13 4 35 7 48 7 18 0 20 2 10 9 -12 7 -12 9 1 10 11 0 9 3
-4 8 -17 6 -16 9 9 25 22 14 25 20 14 27 -10 6 -8 9 9 9 12 0 22 5 22 10 0 6
9 10 19 10 17 0 36 25 33 43 -1 4 4 7 11 8 6 1 1 5 -13 9 l-25 8 28 1 c16 1
26 5 23 10 -4 5 0 11 6 14 7 2 -13 2 -45 -1 -68 -5 -166 12 -219 39 -48 24
-50 24 -44 -8z m161 -73 c3 -6 -1 -7 -9 -4 -18 7 -21 14 -7 14 6 0 13 -4 16
-10z m48 3 c-7 -2 -19 -2 -25 0 -7 3 -2 5 12 5 14 0 19 -2 13 -5z"/>
<path d="M2791 1874 c0 -11 3 -14 6 -6 3 7 2 16 -1 19 -3 4 -6 -2 -5 -13z"/>
<path d="M568 1851 c17 -16 32 -35 32 -43 0 -18 20 -38 39 -38 10 0 8 6 -7 19
-12 10 -22 25 -22 34 0 17 -45 57 -64 57 -6 0 4 -13 22 -29z"/>
<path d="M2250 1857 c-35 -16 -66 -21 -142 -21 -61 -1 -97 -5 -95 -11 2 -5 17
-12 33 -14 27 -4 27 -4 6 -10 -34 -9 -30 -23 14 -48 21 -13 35 -23 29 -23 -5
0 -17 4 -25 9 -8 6 -18 7 -23 4 -6 -3 1 -12 14 -20 16 -9 17 -12 5 -8 -16 5
-17 3 -6 -10 7 -9 15 -13 18 -11 6 6 57 -55 57 -68 0 -6 21 -12 48 -14 37 -2
47 0 47 12 0 9 8 16 17 16 15 0 14 2 -3 15 -18 14 -18 14 9 15 17 0 27 5 27
15 0 8 -4 15 -9 15 -6 0 -9 9 -8 20 1 11 6 20 12 20 5 0 3 5 -5 10 -10 6 -11
10 -2 10 6 0 12 5 12 10 0 6 -10 10 -21 10 -21 0 -21 1 -3 27 23 36 46 59 64
66 11 4 9 5 -5 5 -11 0 -40 -9 -65 -21z m-20 -57 c-20 -13 -40 -13 -40 0 0 6
12 10 28 10 21 0 24 -2 12 -10z m-35 -110 c3 -6 -1 -7 -9 -4 -18 7 -21 14 -7
14 6 0 13 -4 16 -10z"/>
<path d="M537 1823 c3 -7 9 -13 14 -13 5 0 9 -5 9 -11 0 -5 -5 -7 -11 -4 -14
9 -1 -60 18 -98 8 -15 12 -36 8 -46 -3 -9 1 -25 8 -35 12 -16 13 -6 12 70 -2
111 -10 141 -40 146 -16 4 -22 1 -18 -9z"/>
<path d="M512 1770 c-8 -23 -8 -33 3 -44 8 -7 12 -16 10 -18 -3 -3 2 -5 10 -5
11 0 13 7 8 26 -3 14 -9 30 -14 35 -4 5 -5 15 -2 22 3 8 3 14 0 14 -3 0 -10
-13 -15 -30z"/>
<path d="M2723 1775 c-3 -9 -3 -18 -1 -21 3 -3 8 4 11 16 6 23 -1 27 -10 5z"/>
<path d="M2751 1774 c0 -11 3 -14 6 -6 3 7 2 16 -1 19 -3 4 -6 -2 -5 -13z"/>
<path d="M382 1758 c5 -15 28 -23 28 -10 0 5 -7 13 -16 16 -10 4 -14 1 -12 -6z"/>
<path d="M2820 1740 c-6 -12 -9 -24 -7 -27 3 -2 11 5 17 17 6 12 9 24 7 27 -3
2 -11 -5 -17 -17z"/>
<path d="M650 1741 c0 -6 4 -13 10 -16 6 -3 7 1 4 9 -7 18 -14 21 -14 7z"/>
<path d="M2819 1688 c-33 -34 -65 -96 -55 -106 4 -3 14 13 24 36 12 30 22 40
37 39 14 -1 20 4 20 18 1 11 4 26 8 33 14 22 -2 13 -34 -20z m21 -12 c0 -3 -4
-8 -10 -11 -5 -3 -10 -1 -10 4 0 6 5 11 10 11 6 0 10 -2 10 -4z"/>
<path d="M398 1672 c-2 -9 -2 -38 0 -64 3 -37 8 -48 21 -48 25 0 31 9 21 29
-5 9 -12 33 -15 53 -6 41 -20 57 -27 30z"/>
<path d="M550 1670 c0 -5 5 -10 11 -10 5 0 7 5 4 10 -3 6 -8 10 -11 10 -2 0
-4 -4 -4 -10z"/>
<path d="M2706 1636 c-3 -13 -9 -31 -12 -40 -3 -9 -1 -16 4 -16 6 0 14 16 18
35 7 41 0 58 -10 21z"/>
<path d="M441 1634 c0 -11 3 -14 6 -6 3 7 2 16 -1 19 -3 4 -6 -2 -5 -13z"/>
<path d="M630 1634 c0 -15 39 -64 51 -64 6 0 5 8 -1 20 -6 11 -8 24 -5 29 3 5
-3 8 -12 7 -10 -2 -21 2 -25 8 -6 8 -8 8 -8 0z"/>
<path d="M2785 1581 c-8 -17 -12 -31 -7 -31 10 0 35 50 28 57 -2 3 -12 -9 -21
-26z"/>
<path d="M1060 1529 c0 -5 5 -7 10 -4 6 3 10 8 10 11 0 2 -4 4 -10 4 -5 0 -10
-5 -10 -11z"/>
<path d="M481 1510 c0 -8 6 -24 14 -34 11 -15 15 -16 15 -5 0 8 -7 24 -15 35
-11 14 -14 15 -14 4z"/>
<path d="M454 1484 c3 -9 6 -25 6 -35 0 -11 4 -18 9 -15 5 4 12 0 14 -6 4 -10
6 -10 6 0 1 15 -27 72 -35 72 -4 0 -3 -7 0 -16z"/>
<path d="M2759 1451 c-13 -11 -21 -22 -18 -25 3 -3 16 5 29 19 28 30 22 33
-11 6z"/>
<path d="M456 1385 c4 -16 13 -37 21 -46 8 -9 13 -23 11 -30 -2 -8 6 -14 19
-15 19 -1 22 2 16 24 -4 17 -2 23 6 18 12 -8 15 4 3 19 -4 6 -20 17 -37 25
-16 8 -34 19 -38 25 -4 5 -5 -3 -1 -20z"/>
<path d="M2674 1245 c-10 -8 -14 -15 -8 -15 6 0 17 7 24 15 16 19 9 19 -16 0z"/>
<path d="M801 1208 c-1 -10 1 -18 3 -18 2 0 11 -3 20 -6 9 -3 16 -1 16 5 0 6
-6 11 -14 11 -8 0 -17 6 -19 13 -3 7 -6 5 -6 -5z"/>
<path d="M2515 1060 c3 -5 13 -10 21 -10 8 0 12 5 9 10 -3 6 -13 10 -21 10 -8
0 -12 -4 -9 -10z"/>
<path d="M710 1030 c0 -5 5 -10 11 -10 5 0 7 5 4 10 -3 6 -8 10 -11 10 -2 0
-4 -4 -4 -10z"/>
<path d="M2315 820 c-3 -5 -1 -10 4 -10 6 0 11 5 11 10 0 6 -2 10 -4 10 -3 0
-8 -4 -11 -10z"/>
<path d="M1753 683 c-7 -3 -13 -13 -13 -23 0 -10 -5 -20 -11 -22 -8 -3 -9 -18
-4 -46 6 -36 9 -41 21 -31 10 8 12 15 4 23 -13 13 -13 39 0 31 10 -6 24 35 18
58 -1 8 -9 12 -15 10z"/>
<path d="M1891 634 c0 -11 3 -14 6 -6 3 7 2 16 -1 19 -3 4 -6 -2 -5 -13z"/>
<path d="M1652 615 c0 -16 2 -22 5 -12 2 9 2 23 0 30 -3 6 -5 -1 -5 -18z"/>
<path d="M1856 584 c-4 -20 -5 -38 -3 -40 3 -3 8 11 11 32 4 20 5 38 3 40 -3
3 -8 -11 -11 -32z"/>
<path d="M1881 578 c0 -28 2 -30 9 -13 12 28 12 45 0 45 -5 0 -10 -15 -9 -32z"/>
<path d="M1640 549 c0 -6 -7 -9 -15 -5 -12 4 -15 -3 -14 -32 1 -37 1 -37 9 -7
7 26 8 27 9 6 1 -20 3 -21 16 -11 17 14 21 60 5 60 -5 0 -10 -5 -10 -11z"/>
<path d="M1786 544 c-4 -9 -4 -19 -1 -22 2 -3 7 3 11 12 4 9 4 19 1 22 -2 3
-7 -3 -11 -12z"/>
<path d="M1270 529 c0 -11 4 -18 10 -14 5 3 7 12 3 20 -7 21 -13 19 -13 -6z"/>
<path d="M1367 499 c5 -46 -9 -99 -27 -99 -5 0 -7 13 -3 30 3 19 1 30 -6 30
-11 0 -16 -19 -12 -58 1 -12 -8 -44 -19 -70 l-21 -47 41 44 c22 24 40 49 40
55 0 7 14 39 30 71 17 33 28 66 25 74 -5 11 -8 11 -19 -4 -13 -18 -14 -18 -24
0 -8 15 -9 9 -5 -26z"/>
<path d="M1487 520 c-7 -26 -4 -34 11 -29 4 2 5 15 2 29 l-6 25 -7 -25z"/>
<path d="M1557 502 c-9 -10 -17 -27 -16 -38 1 -19 2 -17 15 25 4 11 8 10 19
-5 15 -20 18 -11 6 19 -6 18 -7 18 -24 -1z"/>
<path d="M1288 475 c-25 -33 -23 -53 2 -25 11 13 20 29 20 37 0 17 -2 16 -22
-12z"/>
<path d="M1649 477 c-7 -14 -16 -24 -20 -21 -5 3 -9 -4 -9 -15 0 -31 19 -35
30 -5 l10 27 20 -23 c26 -30 26 -10 1 31 l-20 32 -12 -26z"/>
<path d="M1701 484 c0 -11 3 -14 6 -6 3 7 2 16 -1 19 -3 4 -6 -2 -5 -13z"/>
<path d="M1775 467 c-4 -10 -5 -21 -1 -24 10 -10 18 4 13 24 -4 17 -4 17 -12
0z"/>
<path d="M1840 431 c0 -6 4 -13 10 -16 6 -3 7 1 4 9 -7 18 -14 21 -14 7z"/>
<path d="M1521 414 c0 -11 3 -14 6 -6 3 7 2 16 -1 19 -3 4 -6 -2 -5 -13z"/>
<path d="M1793 405 c0 -14 3 -28 8 -31 5 -3 9 6 9 20 0 14 -4 27 -9 30 -5 3
-8 -6 -8 -19z"/>
<path d="M1386 404 c-10 -25 1 -29 14 -5 6 12 7 21 1 21 -5 0 -12 -7 -15 -16z"/>
<path d="M1256 395 c-3 -8 -1 -15 4 -15 6 0 10 7 10 15 0 8 -2 15 -4 15 -2 0
-6 -7 -10 -15z"/>
<path d="M1601 394 c0 -11 3 -14 6 -6 3 7 2 16 -1 19 -3 4 -6 -2 -5 -13z"/>
<path d="M1822 380 c0 -19 2 -27 5 -17 2 9 2 25 0 35 -3 9 -5 1 -5 -18z"/>
<path d="M1510 376 c0 -9 5 -16 10 -16 6 0 10 4 10 9 0 6 -4 13 -10 16 -5 3
-10 -1 -10 -9z"/>
<path d="M1711 380 c0 -8 4 -24 9 -35 l9 -20 0 20 c0 11 -4 27 -9 35 -9 13
-10 13 -9 0z"/>
<path d="M1840 380 c0 -9 4 -20 10 -26 15 -15 1 -54 -18 -47 -12 5 -14 2 -7
-18 4 -13 7 -53 6 -89 0 -51 2 -60 9 -42 6 13 8 28 5 32 -8 13 6 61 15 55 18
-11 30 22 20 56 -6 18 -7 43 -4 54 4 11 3 17 -1 13 -5 -4 -14 0 -21 10 -11 14
-13 15 -14 2z"/>
<path d="M1502 330 c0 -14 2 -19 5 -12 2 6 2 18 0 25 -3 6 -5 1 -5 -13z"/>
<path d="M1681 334 c0 -12 6 -27 14 -34 12 -10 15 -10 15 4 0 9 -4 16 -9 16
-5 0 -12 8 -14 18 -4 13 -5 13 -6 -4z"/>
<path d="M1552 320 c0 -14 2 -19 5 -12 2 6 2 18 0 25 -3 6 -5 1 -5 -13z"/>
<path d="M1751 313 c-1 -12 4 -25 9 -28 12 -7 12 2 0 30 -8 19 -9 19 -9 -2z"/>
<path d="M1281 254 c-19 -18 -31 -37 -26 -41 4 -5 10 -3 12 4 2 7 10 10 17 7
12 -5 44 51 35 60 -2 3 -19 -11 -38 -30z"/>
<path d="M1334 257 c-35 -54 -38 -60 -36 -94 2 -18 -2 -33 -7 -33 -15 0 -20
-27 -11 -57 9 -28 9 -28 7 -2 -1 15 3 37 10 50 6 13 14 32 17 42 3 10 10 16
15 13 5 -3 16 15 25 41 27 79 17 98 -20 40z m5 -26 c-6 -17 -18 -36 -26 -43
-11 -9 -10 -1 6 30 25 49 35 55 20 13z"/>
<path d="M1400 226 c-17 -31 -28 -61 -24 -67 5 -8 3 -9 -6 -4 -10 6 -11 2 -7
-17 4 -14 3 -28 -1 -32 -4 -4 -7 -11 -7 -14 0 -4 -11 -24 -24 -45 -24 -40 -21
-64 4 -31 13 16 14 16 9 1 -3 -9 -2 -17 4 -17 5 0 12 15 15 32 3 18 12 56 20
83 l15 50 3 -40 2 -40 4 35 c3 19 9 40 14 46 5 6 4 15 -2 21 -8 8 -6 21 6 47
28 59 10 52 -25 -8z"/>
<path d="M1660 253 c0 -17 5 -35 10 -38 13 -8 13 35 0 55 -7 11 -10 7 -10 -17z"/>
<path d="M1790 271 c0 -6 4 -13 10 -16 6 -3 7 1 4 9 -7 18 -14 21 -14 7z"/>
<path d="M1485 260 c-3 -5 -1 -10 4 -10 6 0 11 5 11 10 0 6 -2 10 -4 10 -3 0
-8 -4 -11 -10z"/>
<path d="M1461 224 c0 -11 3 -14 6 -6 3 7 2 16 -1 19 -3 4 -6 -2 -5 -13z"/>
<path d="M1703 200 c-1 -22 1 -41 5 -44 9 -5 10 69 2 77 -3 3 -6 -12 -7 -33z"/>
<path d="M1606 202 c3 -18 12 -46 21 -63 8 -16 15 -46 15 -65 0 -19 4 -36 8
-39 5 -3 7 17 6 45 -2 27 2 51 7 53 6 2 5 11 -2 25 -7 13 -16 20 -21 17 -5 -3
-16 9 -25 27 l-15 33 6 -33z"/>
<path d="M1577 175 c3 -27 7 -52 9 -54 7 -8 2 54 -6 79 -6 17 -7 9 -3 -25z"/>
<path d="M1247 184 c-8 -8 3 -34 14 -34 4 0 5 7 2 17 -5 12 -3 14 7 8 9 -5 11
-4 6 3 -8 13 -19 15 -29 6z"/>
<path d="M1196 164 c-9 -24 -7 -28 9 -14 17 14 20 30 6 30 -5 0 -12 -7 -15
-16z"/>
<path d="M1326 119 c-29 -60 -30 -84 -1 -56 13 13 39 107 31 114 -1 1 -15 -25
-30 -58z"/>
<path d="M1432 120 c0 -14 2 -19 5 -12 2 6 2 18 0 25 -3 6 -5 1 -5 -13z"/>
<path d="M1817 119 c4 -13 8 -18 11 -10 2 7 -1 18 -6 23 -8 8 -9 4 -5 -13z"/>
<path d="M1750 125 c0 -15 18 -40 24 -34 3 3 -1 14 -9 25 -8 10 -14 15 -15 9z"/>
<path d="M1250 70 c0 -5 5 -10 10 -10 6 0 10 5 10 10 0 6 -4 10 -10 10 -5 0
-10 -4 -10 -10z"/>
<path d="M1880 71 c0 -5 5 -13 10 -16 6 -3 10 -2 10 4 0 5 -4 13 -10 16 -5 3
-10 2 -10 -4z"/>
<path d="M1846 54 c10 -28 36 -49 61 -51 18 -1 22 3 21 22 -2 22 -4 23 -20 9
-16 -15 -19 -14 -43 12 -19 20 -24 23 -19 8z"/>
<path d="M1222 30 c-17 -28 -16 -30 27 -30 30 0 40 4 44 19 5 21 -18 37 -29
20 -4 -7 -10 -7 -18 0 -8 7 -15 4 -24 -9z"/>
<path d="M1700 41 c0 -5 7 -12 16 -15 14 -5 15 -4 4 9 -14 17 -20 19 -20 6z"/>
<path d="M1763 25 c11 -23 27 -34 27 -17 -1 9 -26 42 -33 42 -3 0 0 -11 6 -25z"/>
<path d="M1550 13 c0 -7 7 -13 15 -13 8 0 15 6 15 13 0 8 -7 14 -15 14 -8 0
-15 -6 -15 -14z"/>
<path d="M1095 10 c-3 -5 1 -10 10 -10 9 0 13 5 10 10 -3 6 -8 10 -10 10 -2 0
-7 -4 -10 -10z"/>
</g>
</svg>
